<?xml version="1.0" standalone="no"?>
<!DOCTYPE svg PUBLIC "-//W3C//DTD SVG 20010904//EN"
 "http://www.w3.org/TR/2001/REC-SVG-20010904/DTD/svg10.dtd">
<svg version="1.0" xmlns="http://www.w3.org/2000/svg"
 width="970.000000pt" height="600.000000pt" viewBox="0 0 970.000000 600.000000"
 preserveAspectRatio="xMidYMid meet">

<g transform="translate(0.000000,600.000000) scale(0.100000,-0.100000)"
fill="#000000" stroke="none">
<path d="M4950 4320 c-12 -8 -9 -10 13 -10 15 0 27 5 27 10 0 13 -20 13 -40 0z"/>
<path d="M4910 4231 c0 -12 5 -21 10 -21 6 0 10 6 10 14 0 8 -4 18 -10 21 -5
3 -10 -3 -10 -14z"/>
<path d="M4930 4160 c-12 -7 -11 -13 10 -36 29 -32 138 -114 151 -114 27 0
-25 131 -60 149 -24 13 -81 14 -101 1z"/>
<path d="M5386 4154 c-9 -8 -16 -18 -16 -21 0 -3 46 -51 101 -106 64 -64 108
-117 120 -144 14 -33 28 -48 54 -59 20 -8 40 -12 45 -9 6 4 10 32 10 64 0 65
-8 79 -94 169 -105 110 -180 146 -220 106z"/>
<path d="M4280 4094 c0 -19 83 -59 106 -50 16 6 16 8 -4 22 -12 8 -39 21 -62
29 -35 12 -40 12 -40 -1z"/>
<path d="M5230 3905 c14 -17 13 -18 -13 -11 -26 6 -27 5 -22 -21 l6 -28 -25
30 c-33 39 -33 26 0 -31 48 -82 106 -97 131 -36 13 32 12 35 -18 63 -18 17
-42 35 -53 41 -20 10 -20 10 -6 -7z"/>
<path d="M4163 3826 c-32 -24 -73 -60 -91 -79 l-34 -35 35 -26 34 -26 44 20
c24 11 58 20 76 20 42 0 82 16 89 35 12 31 -50 135 -81 135 -7 0 -39 -20 -72
-44z"/>
<path d="M4823 3843 c9 -9 19 -14 23 -11 10 10 -6 28 -24 28 -15 0 -15 -1 1
-17z"/>
<path d="M4512 3800 c-12 -5 -25 -17 -29 -25 -9 -25 14 -64 44 -77 16 -6 43
-17 61 -25 39 -17 48 -12 67 34 18 43 19 75 3 91 -14 14 -112 15 -146 2z"/>
<path d="M4835 3749 c-4 -6 -5 -13 -2 -16 7 -7 27 6 27 18 0 12 -17 12 -25 -2z"/>
<path d="M5724 3625 c-10 -25 74 -160 91 -144 9 9 -36 132 -53 145 -22 17 -31
17 -38 -1z"/>
<path d="M4110 3518 c-11 -12 -25 -40 -31 -63 -5 -22 -12 -45 -14 -51 -2 -7
-23 -18 -46 -26 -58 -19 -72 -43 -39 -68 34 -26 36 -26 64 18 33 53 103 123
164 164 29 19 49 38 45 41 -3 4 -32 7 -64 7 -47 0 -62 -4 -79 -22z"/>
<path d="M4853 3450 c-3 -11 -9 -20 -14 -20 -5 0 -8 -3 -7 -7 0 -5 -12 -35
-28 -68 -27 -55 -29 -68 -29 -170 1 -113 7 -177 19 -207 4 -9 9 -22 11 -30 8
-35 18 -58 25 -58 4 0 15 -17 26 -37 10 -21 22 -40 25 -43 11 -9 60 -110 53
-110 -4 0 -1 -7 6 -15 16 -19 22 -52 26 -133 1 -35 4 -66 7 -68 3 -3 15 13 28
35 12 23 27 41 31 41 5 0 6 5 3 10 -3 6 -1 10 4 10 6 0 10 3 9 8 -4 13 13 52
23 52 5 0 8 3 7 8 -1 4 4 25 12 47 20 60 18 340 -4 395 -3 8 -7 33 -9 56 -2
23 -6 45 -9 50 -6 11 -42 158 -39 162 1 1 -18 22 -42 47 -63 63 -124 84 -134
45z"/>
<path d="M5181 3198 c-20 -21 -21 -21 -41 -3 -11 10 -20 13 -20 7 0 -7 5 -12
11 -12 6 0 9 -7 6 -15 -4 -8 -2 -17 4 -20 5 -4 8 -12 7 -18 -1 -7 4 -22 11
-35 10 -20 15 -21 28 -10 9 7 17 11 17 9 1 -2 21 7 46 20 25 12 47 23 50 22 3
-1 11 5 17 12 10 11 2 18 -43 39 -68 31 -68 31 -93 4z"/>
<path d="M5549 3133 c-8 -9 -36 -27 -64 -39 -27 -13 -42 -24 -33 -24 25 0 118
36 153 60 l30 20 -36 0 c-22 0 -42 -7 -50 -17z"/>
<path d="M5643 3128 c-20 -26 -26 -41 -15 -34 12 7 36 46 29 46 -3 0 -9 -6
-14 -12z"/>
<path d="M4710 3050 c-6 -11 -19 -20 -30 -20 -13 0 -25 -12 -35 -37 -8 -20
-13 -38 -11 -41 3 -2 24 2 48 10 41 14 43 16 46 61 4 51 -1 58 -18 27z"/>
<path d="M4501 2536 c3 -3 14 -7 25 -9 47 -9 116 -58 106 -76 -1 -3 -25 -6
-52 -8 -67 -4 -139 -36 -182 -81 -34 -35 -105 -152 -93 -152 3 0 0 -10 -7 -22
-7 -13 -13 -26 -14 -30 -1 -5 -3 -10 -4 -13 -1 -3 -4 -9 -5 -15 -1 -5 -4 -12
-5 -15 -1 -3 -4 -9 -5 -15 -1 -5 -3 -11 -4 -12 -2 -2 -4 -15 -6 -31 l-4 -27
31 17 c17 10 41 27 54 39 13 11 40 29 61 40 21 10 40 22 43 25 9 11 130 70
130 63 0 -4 6 -2 13 3 23 19 68 24 84 11 9 -7 19 -11 22 -9 3 2 10 -4 16 -13
8 -14 3 -24 -30 -52 -21 -19 -49 -37 -62 -40 -13 -4 -23 -10 -23 -15 0 -12 43
-11 76 2 31 11 125 95 117 103 -3 3 2 8 11 12 9 3 14 9 11 14 -2 4 4 16 13 26
10 10 18 21 19 24 2 21 16 50 25 50 6 0 8 3 5 7 -4 3 0 18 9 32 9 14 11 20 3
14 -7 -7 -16 -13 -20 -13 -8 0 -2 47 8 63 3 5 -12 -2 -33 -17 -38 -26 -84 -35
-84 -17 0 5 10 13 22 17 13 4 28 14 35 23 10 13 7 18 -20 27 -18 6 -32 17 -32
25 0 8 -20 18 -54 26 -64 14 -208 28 -200 19z m236 -142 c-3 -3 -12 -4 -19 -1
-8 3 -5 6 6 6 11 1 17 -2 13 -5z"/>
</g>
</svg>
